<svg xmlns="http://www.w3.org/2000/svg" height="800" width="1200" xml:space="preserve" y="0" x="0" id="Layer_2" version="1.1" viewBox="-37.365 -18.875 323.83 113.25"><style id="style108" type="text/css">.st0{fill:#0497ca}</style><g transform="translate(-.2 -54.2)" id="g120"><g id="g112"><path id="path110" d="M183.1 54.3h39.6c8.8 0 15.4 1.9 19.9 5.7 4.5 3.8 6.7 9.3 6.7 16.5 0 3.6-.6 6.9-1.7 9.8-1.1 3-2.8 5.5-4.9 7.6-2.2 2.1-4.9 3.8-8.1 4.9-3.2 1.2-7 1.8-11.2 1.8h-26.1v28.9h-14.2zm39 34c2.5 0 4.6-.3 6.3-.9 1.7-.6 3-1.4 4.1-2.5 1-1.1 1.8-2.3 2.2-3.7.4-1.4.7-3 .7-4.6 0-1.5-.2-2.9-.7-4.2-.5-1.3-1.2-2.3-2.1-3.2-.9-.9-2.1-1.6-3.5-2.1s-3.1-.8-4.9-.8h-26.8v22h24.7z" class="st0"/></g><path id="path114" d="M118.7 108.3c-1.5 2-3.2 3.7-5.2 5-1.9 1.3-4.1 2.3-6.5 2.9-2.4.6-4.9 1-7.6 1-3.1 0-5.8-.3-8.3-1-2.5-.7-4.6-1.6-6.5-2.7-1.9-1.2-3.5-2.6-4.9-4.2-1.4-1.6-2.2-2.7-3-4.5-.9-1.9-1.5-3.8-1.9-5.9-.4-2.1-.6-4.1-.6-6.3 0-4.5.6-8.4 1.8-11.8 1.2-3.4 3-6.2 5.2-8.4 2.3-2.2 5-3.9 8.2-5 3.2-1.1 6.8-1.7 10.8-1.7 3.1 0 5.9.4 8.4 1.1 2.5.7 4.7 1.7 6.6 3 1.9 1.3 3.5 2.8 4.7 4.6 1.3 1.8 2.2 3.8 2.8 5.9h13.5c-.6-3.4-1.6-6.4-3-9-1.4-2.6-3.1-4.9-5-6.8-2-1.9-4.1-3.5-6.5-4.9-2.4-1.3-4.8-2.4-7.4-3.2-2.5-.8-5.1-1.4-7.6-1.7-2.5-.3-5-.5-7.2-.5-4.2 0-8 .4-11.6 1.3-3.5.9-6.7 2.1-9.6 3.7-2.9 1.6-5.4 3.5-7.6 5.8-2.2 2.3-4 4.8-5.5 7.5-1.5 2.8-2.6 5.7-3.3 8.9-.7 3.2-1.1 6.5-1.1 10 0 4.7.5 8.8 1.6 12.5 1.1 3.7 2.5 6.9 4.4 9.7 1.8 2.8 4 5.2 6.5 7.2s5.2 3.6 8.1 4.8c2.9 1.2 5.9 2.1 9 2.7 3.1.6 6.2.9 9.3.9 4.9 0 9.4-.7 13.5-2.2 4.1-1.5 7.8-3.4 10.9-5.9 3.2-2.5 5.8-5.4 7.9-8.8 1.4-2.3 2.5-5.2 3.3-8.1H121c-.7 1.7-1.5 3.1-2.3 4.1z" class="st0"/><path id="path116" d="M18.3 117.2c1-1.2 2.2-2.4 3.5-3.4 1.4-1 2.9-2 4.5-3 1.6-.9 3.3-1.8 5.1-2.7 1.8-.9 3.5-1.7 5.3-2.6 2.1-.9 4.1-1.9 6.2-2.9 2.1-1 4-2.1 5.9-3.2 1.9-1.1 3.7-2.4 5.3-3.8 1.6-1.4 3.1-2.9 4.3-4.7 1.2-1.7 2.2-3.6 2.9-5.7.7-2.1 1-4.4 1-6.9 0-3.4-.6-6.6-1.8-9.5-1.2-2.9-3-5.5-5.5-7.6-2.4-2.2-5.5-3.8-9.2-5.1-3.7-1.2-8.1-1.8-13.1-1.8-5.3 0-9.9.7-13.8 2.1-3.9 1.4-7.1 3.3-9.7 5.9-2.6 2.5-4.5 5.5-5.7 9-1 2.9-1.6 6-1.8 9.4h13.7c.2-1.7.5-3.3 1.1-4.8.7-2.1 1.9-3.9 3.3-5.4 1.5-1.5 3.3-2.7 5.6-3.5 2.2-.8 4.9-1.3 8-1.3 2 0 3.8.2 5.6.7 1.8.5 3.4 1.2 4.7 2.2 1.4 1 2.4 2.3 3.2 3.9.8 1.6 1.2 3.6 1.2 5.9 0 2-.5 3.8-1.6 5.4-1 1.6-2.4 3.1-4.1 4.4-1.7 1.4-3.7 2.6-5.9 3.8-2.2 1.2-4.5 2.3-6.8 3.5-2 1-4.1 2.1-6.3 3.3-2.2 1.2-4.4 2.5-6.5 4-2.1 1.5-4.2 3.1-6.1 4.9-1.9 1.8-3.6 3.8-5.2 6-1.5 2.2-2.7 4.6-3.7 7.3-.9 2.6-1.5 5.5-1.7 8.7h123.1v-12.3h-105z" class="st0"/><path id="path118" d="M142.7 113.8c1.4-1 2.9-2 4.5-3 1.6-.9 3.3-1.8 5.1-2.7 1.8-.9 3.5-1.7 5.3-2.6 2.1-.9 4.1-1.9 6.2-2.9 2.1-1 4-2.1 5.9-3.2 1.9-1.1 3.7-2.4 5.3-3.8 1.6-1.4 3.1-2.9 4.3-4.7 1.2-1.7 2.2-3.6 2.9-5.7.7-2.1 1-4.4 1-6.9 0-3.4-.6-6.6-1.8-9.5-1.2-2.9-3-5.5-5.5-7.6-2.4-2.2-5.5-3.8-9.2-5.1-3.7-1.2-8.1-1.8-13.1-1.8-5.3 0-9.6.7-13.5 2.1-3.9 1.4-7.1 3.3-9.7 5.9-2.6 2.5-4.5 5.5-5.7 9-1 2.8-1.6 5.9-1.8 9.2h13.5c.2-1.6.6-3.2 1.1-4.6.7-2.1 1.9-3.9 3.3-5.4 1.5-1.5 3.3-2.7 5.6-3.5 2.2-.8 4.9-1.3 8-1.3 2 0 3.8.2 5.6.7 1.8.5 3.4 1.2 4.7 2.2 1.4 1 2.4 2.3 3.2 3.9.8 1.6 1.2 3.6 1.2 5.9 0 2-.5 3.8-1.6 5.4-1 1.6-2.4 3.1-4.1 4.4-1.7 1.4-3.7 2.6-5.9 3.8-2.2 1.2-4.5 2.3-6.8 3.5-2 1-4.1 2.1-6.3 3.3-2.2 1.2-4.4 2.5-6.5 4-2.1 1.5-4.2 3.1-6.1 4.9-1.9 1.8-3.6 3.8-5.2 6-1.5 2.2-2.7 4.6-3.7 7.3-.9 2.6-1.5 5.5-1.7 8.7h61.9v-12.3h-44c1-1.5 2.2-2.6 3.6-3.6z" fill="#94c83d"/></g></svg>