<svg width="122" height="27" viewBox="0 0 122 27" fill="none" xmlns="http://www.w3.org/2000/svg">
<g clip-path="url(#clip0_4603_55152)">
<path d="M104.325 4.62793H55.4922V22.2512H104.325V4.62793Z" fill="white"/>
<path d="M88.0939 15.3305V20.7601H90.9789V15.2879L95.5123 6.98849H92.3292L89.5648 12.4016L86.8216 6.99322H83.5605L88.0939 15.3305ZM78.1735 15.2524H75.1324L76.6624 10.7573L78.1735 15.2524ZM75.3358 6.91278L70.346 20.7601H73.2429L74.2598 17.7721H79.0509L80.0843 20.7601H83.0663L78.0742 6.91278H75.3358ZM64.2803 14.0103H62.6722V9.56964H64.2401C65.011 9.56964 65.5983 9.75969 66.0019 10.1398C66.4062 10.5207 66.6073 11.0696 66.6073 11.7959V11.8172C66.6163 12.1069 66.5679 12.3955 66.4648 12.6664C66.3617 12.9372 66.206 13.1849 66.0066 13.3952C65.6093 13.8069 65.037 14.0151 64.2756 14.0151L64.2803 14.0103ZM59.7872 6.98849V20.7601H62.6722V16.5702H64.3016C64.9956 16.5613 65.6844 16.448 66.3448 16.2343C66.9518 16.042 67.5145 15.7307 68.0001 15.3187C68.4738 14.9077 68.8509 14.3971 69.1045 13.8234C69.3915 13.157 69.5302 12.4361 69.5112 11.7107C69.5222 11.0345 69.4009 10.3626 69.1542 9.73288C68.9297 9.16947 68.5833 8.66285 68.1397 8.24949C67.6794 7.82483 67.1346 7.50233 66.541 7.30314C65.8544 7.07795 65.1352 6.96841 64.4127 6.97902L59.7872 6.98849ZM101.857 16.1727C102.339 16.1671 102.809 16.0189 103.208 15.7467C103.606 15.4745 103.915 15.0906 104.096 14.6431C104.277 14.1956 104.321 13.7047 104.223 13.232C104.126 12.7594 103.891 12.3262 103.548 11.9869C103.205 11.6476 102.769 11.4174 102.295 11.3253C101.822 11.2332 101.332 11.2832 100.886 11.4692C100.441 11.6552 100.061 11.9687 99.7937 12.3704C99.5262 12.772 99.3835 13.2438 99.3834 13.7264C99.3847 14.0496 99.4495 14.3693 99.5743 14.6673C99.699 14.9654 99.8812 15.2359 100.11 15.4635C100.34 15.6911 100.612 15.8713 100.91 15.9938C101.209 16.1163 101.529 16.1787 101.852 16.1775L101.857 16.1727ZM53.1563 3.50358C53.1559 3.1873 53.2179 2.87405 53.3386 2.58173C53.4593 2.28941 53.6364 2.02373 53.8597 1.79986C54.083 1.576 54.3482 1.39833 54.6402 1.27701C54.9321 1.15569 55.2451 1.09308 55.5613 1.09277L100.088 1.09277C100.674 1.12424 101.247 1.27795 101.77 1.544C102.293 1.81006 102.754 2.18259 103.125 2.63768L109.819 11.8645C110.954 13.4047 110.954 14.467 109.954 15.7729L103.125 25.1796C102.755 25.6352 102.293 26.0081 101.77 26.2742C101.247 26.5403 100.674 26.6937 100.088 26.7245H55.5613C54.9232 26.7226 54.3118 26.4678 53.8611 26.016C53.4103 25.5641 53.1569 24.952 53.1563 24.3137V3.50358Z" fill="#F44429"/>
<path d="M41.4282 10.4806H42.8471V12.1367C43.1404 11.629 43.5339 11.1863 44.0035 10.8355C44.5577 10.4524 45.2224 10.262 45.8953 10.2937C46.9468 10.2937 47.7698 10.6225 48.3642 11.2802C48.9585 11.938 49.2541 12.8346 49.251 13.9702V20.5591H47.8321V14.3488C47.8321 13.4466 47.6248 12.7542 47.2101 12.2715C46.9915 12.025 46.7197 11.8316 46.4153 11.7057C46.1109 11.5799 45.7818 11.525 45.4531 11.5452C45.0935 11.5409 44.7371 11.6135 44.4078 11.7581C44.0977 11.8964 43.8192 12.0969 43.5896 12.3472C43.3491 12.6117 43.1634 12.9213 43.0433 13.2581C42.9066 13.6323 42.8393 14.0284 42.8447 14.4268V20.5591H41.4258L41.4282 10.4806ZM36.9682 10.4806H38.387V20.5591H36.9682V10.4806ZM36.8949 6.76855H38.4722V8.42465H36.8949V6.76855ZM30.5406 16.4686C30.5479 16.2489 30.502 16.0307 30.4069 15.8326C30.3118 15.6345 30.1703 15.4623 29.9944 15.3306C29.6333 15.0546 29.0973 14.9158 28.3863 14.9142H25.8796V18.0821H28.4454C28.9822 18.1146 29.5159 17.9799 29.9731 17.6964C30.1593 17.5631 30.3087 17.3846 30.4071 17.1777C30.5055 16.9708 30.5499 16.7422 30.5359 16.5135V16.4946L30.5406 16.4686ZM29.9494 10.9963C29.9592 10.7846 29.9182 10.5735 29.8297 10.3809C29.7413 10.1883 29.608 10.0196 29.441 9.88912C29.0228 9.60911 28.5245 9.47367 28.0221 9.50348H25.8938V12.5507H27.8873C28.4163 12.5773 28.9414 12.4464 29.3961 12.1745C29.582 12.0481 29.7318 11.8753 29.8305 11.6733C29.9292 11.4712 29.9735 11.2468 29.9589 11.0224L29.9494 10.9963ZM23.0915 7.01224H28.2231C28.9314 7.00186 29.6369 7.10326 30.3136 7.3127C30.8827 7.48217 31.4037 7.78372 31.8342 8.1928C32.1383 8.49233 32.3776 8.85128 32.537 9.24731C32.6965 9.64334 32.7728 10.068 32.7612 10.4948V10.5516C32.7672 10.9118 32.7145 11.2706 32.6051 11.6138C32.5078 11.9073 32.3675 12.1848 32.1889 12.4371C32.0232 12.6716 31.824 12.8804 31.5977 13.057C31.3754 13.2296 31.138 13.3816 30.8883 13.5112C31.5707 13.7497 32.1868 14.147 32.6855 14.6705C33.1317 15.1595 33.3555 15.8495 33.3571 16.7406V16.8376C33.3673 17.3929 33.2458 17.9426 33.0024 18.4417C32.7645 18.9069 32.4151 19.306 31.9855 19.6033C31.5043 19.9302 30.9697 20.1704 30.4058 20.3131C29.7375 20.4779 29.051 20.5574 28.3626 20.5497H23.0962V7.01934L23.0915 7.01224ZM11.8279 18.295L15.893 14.195C16.2588 13.8354 16.5678 13.5097 16.82 13.2179C17.0418 12.9644 17.2464 12.6965 17.4325 12.4159C17.5773 12.1953 17.6926 11.9567 17.7754 11.7061C17.8494 11.4768 17.8869 11.2373 17.8866 10.9963C17.8997 10.7765 17.8641 10.5564 17.7823 10.352C17.7006 10.1475 17.5746 9.96357 17.4136 9.81341C17.0854 9.5315 16.6635 9.38293 16.2312 9.39702C15.7696 9.38941 15.3175 9.52858 14.94 9.79448C14.4779 10.1422 14.0629 10.5486 13.7056 11.0034L11.8516 9.28109C12.3828 8.53507 13.0653 7.9095 13.8546 7.44519C14.6523 7.0138 15.5494 6.80002 16.4559 6.82534C17.0493 6.82003 17.6397 6.91194 18.2034 7.09741C18.7117 7.26301 19.1814 7.52934 19.5845 7.88051C19.9721 8.22113 20.2791 8.6438 20.4831 9.11785C20.7015 9.64213 20.8086 10.2061 20.7976 10.7739V10.8118C20.8038 11.2498 20.7472 11.6864 20.6297 12.1083C20.5086 12.5159 20.3294 12.9039 20.0977 13.2605C19.8207 13.674 19.5064 14.0612 19.1588 14.4174C18.7308 14.8692 18.2886 15.3117 17.8369 15.7422L15.5265 18.0419H20.8142V20.5591H11.8279V18.295ZM7.44358 16.4757C7.45252 16.2552 7.40793 16.0359 7.31361 15.8365C7.2193 15.6371 7.07808 15.4635 6.90204 15.3306C6.53944 15.0546 6.00342 14.9158 5.29397 14.9142H2.78728V18.0821H5.35309C5.89062 18.1142 6.42495 17.9795 6.88312 17.6964C7.06877 17.5626 7.21753 17.384 7.31553 17.1771C7.41354 16.9703 7.45759 16.742 7.44358 16.5135V16.4946V16.4757ZM6.86184 11.0034C6.87224 10.7901 6.83102 10.5774 6.74168 10.3834C6.65234 10.1894 6.51752 10.0198 6.34868 9.88912C5.9306 9.60879 5.43218 9.47332 4.92979 9.50348H2.80147V12.5507H4.78081C5.30986 12.5776 5.83497 12.4466 6.28956 12.1745C6.47709 12.0491 6.62857 11.8768 6.72895 11.6746C6.82934 11.4725 6.87515 11.2477 6.86184 11.0224V11.0034ZM0.00390625 7.01934H5.13553C5.84458 7.00915 6.55082 7.11054 7.22838 7.3198C7.79892 7.48908 8.3215 7.79061 8.75368 8.1999C9.05782 8.49942 9.29707 8.85838 9.45656 9.25441C9.61604 9.65044 9.69233 10.0751 9.68069 10.5019V10.5587C9.68675 10.9189 9.63404 11.2777 9.52461 11.6209C9.42754 11.9141 9.28812 12.1915 9.11077 12.4442C8.94351 12.6782 8.74363 12.8869 8.5172 13.0641C8.29426 13.2357 8.05689 13.3877 7.80776 13.5183C8.48927 13.7573 9.10439 14.1546 9.60265 14.6776C10.0457 15.1681 10.2672 15.859 10.2672 16.7501V16.8471C10.2785 17.4024 10.1568 17.9524 9.91244 18.4512C9.67452 18.9164 9.32518 19.3155 8.89557 19.6128C8.41436 19.9396 7.87975 20.1798 7.31588 20.3225C6.64756 20.4875 5.96101 20.567 5.27269 20.5591H0.00390625V7.01934Z" fill="#292929"/>
<path d="M114.644 6.33109H114.062V3.28918H113.027V2.7959H115.676V3.28918H114.644V6.33109Z" fill="#292929"/>
<path d="M117.743 6.33109L116.725 3.37865H116.704C116.708 3.44474 116.714 3.53502 116.72 3.64947C116.727 3.76393 116.733 3.88644 116.737 4.01701C116.742 4.14759 116.745 4.27252 116.745 4.39181V6.33109H116.218V2.7959H117.032L118.011 5.61777H118.026L119.038 2.7959H119.85V6.33109H119.297V4.3628C119.297 4.25479 119.299 4.13792 119.302 4.01218C119.307 3.88644 119.311 3.76715 119.316 3.65431C119.323 3.54146 119.328 3.45119 119.331 3.38349H119.311L118.255 6.33109H117.743Z" fill="#292929"/>
</g>
<defs>
<clipPath id="clip0_4603_55152">
<rect width="121.409" height="26" fill="white" transform="translate(0 0.898438)"/>
</clipPath>
</defs>
</svg>
